<?xml version="1.0" standalone="no"?>
<!DOCTYPE svg PUBLIC "-//W3C//DTD SVG 20010904//EN"
 "http://www.w3.org/TR/2001/REC-SVG-20010904/DTD/svg10.dtd">
<svg version="1.0" xmlns="http://www.w3.org/2000/svg"
 width="800.000000pt" height="800.000000pt" viewBox="0 0 800.000000 800.000000"
 preserveAspectRatio="xMidYMid meet">
<metadata>
Created by potrace 1.14, written by Peter Selinger 2001-2017
</metadata>
<g transform="translate(0.000000,800.000000) scale(0.100000,-0.100000)"
fill="#000000" stroke="none">
<path d="M5331 7281 c-12 -11 -33 -79 -64 -211 -26 -107 -90 -375 -143 -595
-52 -220 -147 -614 -209 -875 -63 -261 -141 -587 -174 -725 -33 -137 -76 -317
-95 -400 -34 -142 -65 -271 -186 -770 -27 -115 -83 -347 -123 -514 l-73 -305
-74 -12 c-48 -8 -105 -28 -160 -55 -79 -39 -99 -56 -270 -229 -190 -192 -279
-268 -431 -371 -413 -277 -880 -374 -1279 -264 -80 22 -214 19 -293 -5 -120
-37 -227 -128 -287 -242 -42 -80 -72 -208 -73 -308 0 -155 43 -277 144 -412
94 -126 230 -211 389 -245 105 -22 450 -25 575 -5 476 77 939 303 1389 675
156 129 403 377 538 540 170 205 233 350 232 532 -1 122 -24 191 -89 263 l-44
48 75 310 c41 170 92 386 115 479 22 94 62 262 89 375 28 113 77 318 110 455
33 138 148 617 255 1065 107 448 217 907 244 1020 27 113 78 321 112 463 41
173 58 262 52 268 -6 6 -61 23 -122 39 -104 26 -113 27 -130 11z m-982 -4593
c25 -12 66 -42 92 -67 39 -38 49 -56 60 -104 16 -74 2 -170 -37 -257 l-28 -63
-110 7 c-61 4 -130 9 -152 12 l-41 6 -22 116 c-20 104 -52 247 -67 294 -3 12
5 22 28 34 93 49 204 58 277 22z m-409 -311 c12 -65 20 -121 17 -123 -2 -2
-17 0 -33 5 -16 5 -68 22 -116 37 l-87 27 92 98 c59 64 94 95 98 86 3 -6 16
-65 29 -130z m-205 -244 c22 -8 87 -27 145 -42 l105 -28 6 -49 c4 -27 10 -103
14 -169 l7 -121 -61 -57 c-34 -31 -68 -57 -76 -57 -18 0 -187 61 -239 86 l-40
19 -1 237 -1 236 50 -20 c28 -11 69 -27 91 -35z m-296 -183 c-1 -107 -4 -140
-14 -140 -13 0 -155 98 -188 129 -18 17 -16 20 50 59 37 22 84 52 103 66 19
14 39 25 43 26 4 0 7 -63 6 -140z m809 80 c23 0 42 -4 42 -8 0 -5 -26 -37 -57
-72 l-58 -64 -7 45 c-3 24 -7 59 -7 78 -1 30 1 33 22 27 12 -3 41 -6 65 -6z
m-948 -357 c41 -28 85 -56 98 -62 26 -14 27 7 -4 -237 l-16 -132 -82 -43 -82
-43 -35 24 c-52 37 -171 135 -197 163 l-24 25 36 154 c19 84 43 194 52 245
l16 92 82 -68 c44 -38 115 -91 156 -118z m-440 -19 c-17 -73 -35 -134 -40
-134 -11 0 -67 71 -123 154 l-46 70 87 22 c48 13 101 27 117 32 18 5 31 5 34
0 1 -5 -11 -70 -29 -144z m-969 74 c25 -96 83 -267 124 -364 l43 -103 -70
-103 c-39 -57 -84 -121 -101 -143 -17 -22 -32 -42 -34 -44 -1 -2 -28 11 -59
30 -116 70 -209 212 -220 340 -7 79 23 213 64 279 34 55 112 116 172 135 65
20 68 19 81 -27z m322 1 c48 -6 87 -16 87 -20 0 -12 -104 -219 -122 -243 -13
-17 -16 -15 -38 35 -12 30 -38 98 -56 153 l-34 99 38 -7 c20 -3 76 -11 125
-17z m428 -272 c32 -42 73 -95 90 -117 l31 -39 -41 -123 c-22 -68 -49 -145
-60 -173 l-19 -50 -76 -14 c-42 -7 -82 -11 -89 -8 -16 6 -139 182 -181 258
l-31 56 72 144 c67 134 111 229 134 288 9 23 13 20 61 -60 27 -46 77 -119 109
-162z m1014 29 l50 -22 -65 -48 c-73 -54 -77 -52 -65 40 4 32 11 54 18 53 7 0
35 -10 62 -23z m-651 -415 c3 -4 -29 -19 -70 -33 -83 -30 -83 -30 -58 48 9 27
18 55 20 62 3 10 20 0 54 -28 27 -23 52 -45 54 -49z m-795 -82 c23 -39 41 -72
39 -74 -6 -7 -179 7 -176 14 10 21 84 131 88 131 3 0 25 -32 49 -71z"/>
<path d="M5375 2169 c-356 -55 -625 -369 -625 -729 0 -216 109 -441 278 -576
71 -56 196 -117 286 -139 80 -19 246 -22 321 -5 258 57 464 241 552 495 25 73
27 93 28 225 0 137 -2 150 -32 233 -44 123 -86 189 -183 287 -96 97 -193 154
-319 189 -88 24 -223 33 -306 20z m181 -88 c163 -74 114 -322 -64 -324 -158
-2 -237 177 -127 288 55 55 122 67 191 36z m-453 -504 c105 -80 83 -246 -38
-292 -89 -35 -188 5 -220 89 -34 87 -1 180 77 220 50 25 136 17 181 -17z m970
0 c48 -37 70 -88 65 -152 -11 -127 -144 -194 -256 -129 -119 70 -103 253 28
307 8 4 40 5 72 4 42 -2 64 -10 91 -30z m-516 -466 c126 -58 130 -247 6 -306
-176 -84 -335 133 -198 270 56 55 122 67 192 36z"/>
</g>
</svg>
